HIERARCHY
ROOT Hips
{
	OFFSET 0.000000 0.000000 0.000000
	CHANNELS 6 Xposition Yposition Zposition Xrotation Yrotation Zrotation
	JOINT LeftUpLeg_virtual
	{
		OFFSET 0.000000 0.000000 0.000000
		CHANNELS 3 Xrotation Yrotation Zrotation
		JOINT LeftUpLeg
		{
			OFFSET 10.205400 -3.823500 0.155100
			CHANNELS 3 Xrotation Yrotation Zrotation
			JOINT LeftLeg
			{
				OFFSET 0.708757 -12.982077 0.567790
				CHANNELS 3 Xrotation Yrotation Zrotation
				JOINT LeftFoot
				{
					OFFSET -0.708756 -10.717838 -2.184338
					CHANNELS 3 Xrotation Yrotation Zrotation
					JOINT LeftToeBase
					{
						OFFSET 0.108149 -7.191104 7.560241
						CHANNELS 3 Xrotation Yrotation Zrotation
						JOINT LeftToe_End
						{
							OFFSET 0.070230 0.081724 4.490308
							CHANNELS 3 Xrotation Yrotation Zrotation
							End Site
							{
								OFFSET 0 0 0
							}
						}
					}
				}
			}
		}
	}
	JOINT RightUpLeg_virtual
	{
		OFFSET 0.000000 0.000000 0.000000
		CHANNELS 3 Xrotation Yrotation Zrotation
		JOINT RightUpLeg
		{
			OFFSET -10.205400 -3.823500 0.005500
			CHANNELS 3 Xrotation Yrotation Zrotation
			JOINT RightLeg
			{
				OFFSET -0.708756 -12.982134 0.610632
				CHANNELS 3 Xrotation Yrotation Zrotation
				JOINT RightFoot
				{
					OFFSET 0.708754 -10.717769 -1.945823
					CHANNELS 3 Xrotation Yrotation Zrotation
					JOINT RightToeBase
					{
						OFFSET -0.108140 -7.191069 7.372968
						CHANNELS 3 Xrotation Yrotation Zrotation
						JOINT RightToe_End
						{
							OFFSET -0.070227 0.081735 4.479403
							CHANNELS 3 Xrotation Yrotation Zrotation
							End Site
							{
								OFFSET 0 0 0
							}
						}
					}
				}
			}
		}
	}
	JOINT Spine_virtual
	{
		OFFSET 0.000000 0.000000 0.000000
		CHANNELS 3 Xrotation Yrotation Zrotation
		JOINT Spine
		{
			OFFSET 0.000000 6.876099 0.125700
			CHANNELS 3 Xrotation Yrotation Zrotation
			JOINT Spine1
			{
				OFFSET 0.000000 5.730043 0.104720
				CHANNELS 3 Xrotation Yrotation Zrotation
				JOINT Spine1_split
				{
					OFFSET 0.000000 5.730043 0.104720
					CHANNELS 3 Xrotation Yrotation Zrotation
					JOINT Spine2
					{
						OFFSET 0.000000 5.730043 0.104720
						CHANNELS 3 Xrotation Yrotation Zrotation
						JOINT Neck_virtual
						{
							OFFSET 0.000000 0.000000 0.000000
							CHANNELS 3 Xrotation Yrotation Zrotation
							JOINT Neck
							{
								OFFSET 0.000000 10.314075 0.188496
								CHANNELS 3 Xrotation Yrotation Zrotation
								JOINT Head
								{
									OFFSET 0.000000 7.643700 -2.377400
									CHANNELS 3 Xrotation Yrotation Zrotation
									JOINT HeadTop_End
									{
										OFFSET 0.000000 43.788605 -13.619600
										CHANNELS 3 Xrotation Yrotation Zrotation
										End Site
										{
											OFFSET 0 0 0
										}
									}
								}
							}
						}
						JOINT LeftShoulder_virtual
						{
							OFFSET 0.000000 0.000000 0.000000
							CHANNELS 3 Xrotation Yrotation Zrotation
							JOINT LeftShoulder
							{
								OFFSET 2.196100 4.412489 0.087492
								CHANNELS 3 Xrotation Yrotation Zrotation
								JOINT LeftShoulder_split
								{
									OFFSET 2.196100 4.412489 0.087492
									CHANNELS 3 Xrotation Yrotation Zrotation
									JOINT LeftArm
									{
										OFFSET 8.771219 -2.981674 -0.026999
										CHANNELS 3 Xrotation Yrotation Zrotation
										JOINT LeftForeArm
										{
											OFFSET 8.512804 0.000000 -0.000000
											CHANNELS 3 Xrotation Yrotation Zrotation
											JOINT LeftHand
											{
												OFFSET 18.484802 0.000000 -0.000000
												CHANNELS 3 Xrotation Yrotation Zrotation
												End Site
												{
													OFFSET 0 0 0
												}
											}
										}
									}
								}
							}
						}
						JOINT RightShoulder_virtual
						{
							OFFSET 0.000000 0.000000 0.000000
							CHANNELS 3 Xrotation Yrotation Zrotation
							JOINT RightShoulder
							{
								OFFSET -2.196100 4.412496 0.070690
								CHANNELS 3 Xrotation Yrotation Zrotation
								JOINT RightShoulder_split
								{
									OFFSET -2.196100 4.412496 0.070690
									CHANNELS 3 Xrotation Yrotation Zrotation
									JOINT RightArm
									{
										OFFSET -8.771282 -2.981682 -0.094208
										CHANNELS 3 Xrotation Yrotation Zrotation
										JOINT RightForeArm
										{
											OFFSET -8.494598 0.000000 0.000000
											CHANNELS 3 Xrotation Yrotation Zrotation
											JOINT RightHand
											{
												OFFSET -18.483803 0.000000 0.000001
												CHANNELS 3 Xrotation Yrotation Zrotation
												End Site
												{
													OFFSET 0 0 0
												}
											}
										}
									}
								}
							}
						}
					}
				}
			}
		}
	}
}
MOTION
Frames: 7
Frame Time: 0.03333333
0.934146 26.858179 0.533129 0.000000 0.000000 0.000000 -1.152977 -47.835103 4.197468 -38.181434 6.500398 25.760309 60.307941 -11.849406 -2.136404 -25.217991 -8.064134 -12.666358 -2.844974 -0.848521 0.863455 0.000000 0.000000 0.000000 -2.740648 -46.889283 4.424665 -14.090929 -13.178480 -40.332837 64.125217 3.171309 -6.214168 -36.437512 -18.955626 31.864806 -1.400156 -0.189992 0.803204 0.000000 0.000000 0.000000 -0.796289 -46.991582 5.073897 8.771359 11.384770 -3.489182 0.792063 4.018133 -1.824483 0.495091 -1.764792 1.228434 0.000000 0.000000 0.000000 2.071851 4.020323 -1.792045 -8.551162 11.795292 4.018649 6.920270 16.626803 1.263519 0.000000 0.000000 0.000000 1.585608 4.060808 -1.344219 0.777401 0.183867 -4.304798 -0.720805 -3.816731 1.481645 5.797718 1.158024 -39.294348 178.291297 -49.279781 178.559614 0.000000 0.000000 0.000000 1.348239 3.652938 -1.637246 1.355565 13.601153 -4.626517 -6.886133 -1.340125 2.311842 -60.034781 21.198252 64.536477 -165.970783 79.381422 164.689426 0.000000 0.000000 0.000000 
1.068275 26.970633 0.577913 0.000000 0.000000 0.000000 -1.036297 -52.644229 3.874851 -33.435757 7.789179 26.273277 59.285017 -11.377616 -3.797310 -29.559491 -3.969668 -11.523939 -3.325813 -0.925737 1.285993 0.000000 0.000000 0.000000 -2.521392 -51.370215 4.246347 -18.450149 -7.203271 -40.672510 66.040921 4.647907 -7.195833 -34.890218 -16.540384 31.800609 -0.593029 0.013213 0.709725 0.000000 0.000000 0.000000 -0.237443 -50.924859 5.168475 9.047374 10.911134 -2.653885 1.069520 3.895989 -1.758489 0.504573 -1.645168 1.083761 0.000000 0.000000 0.000000 2.387732 3.931499 -1.681984 -8.666299 12.943892 3.663847 5.963356 19.655946 -0.538671 0.000000 0.000000 0.000000 1.586791 3.976918 -1.258078 1.002758 0.714940 -2.412761 -0.091882 -4.297929 0.602014 1.904330 5.623008 -34.257288 178.680727 -53.935436 178.831360 0.000000 0.000000 0.000000 1.342290 3.558891 -1.484310 1.104395 11.119793 -2.574775 -6.225970 -1.500105 2.461822 -61.103453 23.823421 69.849865 -172.129250 75.007573 170.750440 0.000000 0.000000 0.000000 
1.168592 27.023167 0.550573 0.000000 0.000000 0.000000 -0.987561 -57.483234 3.084882 -29.426265 7.894515 26.768905 59.488769 -10.763478 -4.552486 -33.969734 -0.193947 -10.267245 -3.463807 -0.945327 1.280746 0.000000 0.000000 0.000000 -2.412005 -55.585391 3.523567 -21.767806 -2.393580 -40.052417 65.989709 5.963500 -7.882368 -33.242558 -14.247752 31.791215 -0.173279 0.323082 0.535230 0.000000 0.000000 0.000000 0.495121 -54.525236 4.794991 9.239667 9.942093 -2.000639 1.345969 3.332827 -1.690674 0.793049 -1.567391 0.937481 0.000000 0.000000 0.000000 2.669561 3.295145 -1.534132 -8.749498 14.378265 3.326628 5.316539 22.785252 -2.532020 0.000000 0.000000 0.000000 1.669674 3.349257 -1.208280 1.134409 1.091622 -0.156539 -0.153028 -2.903932 -0.206878 -6.626518 6.137119 -26.692007 178.583984 -66.266140 178.812454 0.000000 0.000000 0.000000 1.444505 2.982389 -1.442687 0.897867 9.534208 -0.892716 -5.741869 -2.228757 2.332423 -61.564375 26.483847 74.300389 -175.988444 71.017595 174.380317 0.000000 0.000000 0.000000 
1.224821 27.038195 0.423532 0.000000 0.000000 0.000000 -1.327184 -61.048716 1.763072 -27.181557 6.544791 27.380434 61.027986 -10.555611 -4.133637 -37.199601 2.661685 -9.955017 -3.049092 -0.875888 0.854380 0.000000 0.000000 0.000000 -2.706421 -58.614225 2.155712 -23.291918 0.284416 -38.821617 64.210485 6.748226 -8.114965 -32.049710 -12.554329 31.607872 -0.250187 0.679936 0.425586 0.000000 0.000000 0.000000 0.949572 -57.080840 3.857658 9.326951 8.439068 -1.535115 1.520808 2.324158 -1.665675 1.149344 -1.339717 0.703176 0.000000 0.000000 0.000000 2.785543 2.121171 -1.473367 -8.649250 15.914370 3.107859 5.452304 25.700499 -4.574189 0.000000 0.000000 0.000000 1.996459 2.164460 -1.277702 1.213316 1.186162 1.968387 -1.117732 -0.180633 -0.829337 -17.436617 1.743809 -19.231282 171.822165 -85.993762 172.157718 0.000000 0.000000 0.000000 1.632062 1.895513 -1.536698 0.761849 8.838200 0.379683 -5.890117 -2.975865 1.812908 -59.885384 29.242164 77.421745 -178.458158 67.069794 176.509696 0.000000 0.000000 0.000000 
1.227765 27.024466 0.267029 0.000000 0.000000 0.000000 -2.033468 -62.327259 0.046407 -27.059275 4.261450 27.927190 63.344800 -10.820683 -2.680543 -38.155301 4.276580 -11.237917 -2.651603 -0.706113 0.305203 0.000000 0.000000 0.000000 -3.317850 -59.848208 0.398557 -22.726268 0.423751 -37.421760 61.508845 6.726491 -7.958120 -31.737058 -11.835014 31.162728 -0.775737 0.998553 0.450045 0.000000 0.000000 0.000000 1.090763 -58.233797 2.586489 9.264401 6.614723 -1.288777 1.585127 1.106216 -1.743743 1.222571 -1.144557 0.235913 0.000000 0.000000 0.000000 2.707639 0.719067 -1.573772 -8.457517 17.199801 3.039359 6.237459 27.913605 -6.275848 0.000000 0.000000 0.000000 2.529502 0.690054 -1.436739 1.251565 1.172375 3.431932 -2.646394 2.534370 -1.056355 -26.564253 -5.647125 -15.008212 2.825529 -72.473443 3.053543 0.000000 0.000000 0.000000 1.931881 0.575629 -1.764344 0.747627 9.155286 1.154407 -6.692633 -3.072275 1.565956 -55.051782 32.129299 78.205188 -179.527356 62.646878 177.257233 0.000000 0.000000 0.000000 
1.193492 26.987818 0.156528 0.000000 0.000000 0.000000 -2.459696 -61.090380 -1.322501 -28.896225 1.882040 28.006110 65.591154 -11.149955 -0.710658 -36.995119 4.557728 -13.462691 -2.777487 -0.505606 -0.071068 0.000000 0.000000 0.000000 -3.914171 -58.915415 -1.194616 -20.251653 -1.708993 -36.172480 58.810674 5.906950 -7.591491 -32.569409 -12.239451 30.615117 -1.252286 1.240404 0.545600 0.000000 0.000000 0.000000 0.906390 -57.514585 1.374583 9.126485 4.881784 -1.275407 1.578467 0.095963 -1.923774 1.003872 -0.677421 -0.084543 0.000000 0.000000 0.000000 2.436851 -0.453828 -1.808470 -8.285201 17.815840 3.084667 7.282009 28.607020 -7.105449 0.000000 0.000000 0.000000 3.139099 -0.614720 -1.643614 1.202874 1.412828 4.149966 -4.377308 3.934682 -1.768335 -32.347578 -12.790549 -15.611625 2.459049 -58.115593 2.347376 0.000000 0.000000 0.000000 2.301850 -0.577665 -2.075895 0.871846 10.518711 1.122706 -7.536426 -2.904944 1.966491 -46.912529 34.741921 75.721396 -179.662143 57.454356 177.163345 0.000000 0.000000 0.000000 
1.108523 26.922352 0.117878 0.000000 0.000000 0.000000 -2.366425 -57.652671 -1.863388 -32.286892 0.102881 27.317844 67.242775 -11.044807 1.210353 -34.564770 3.384302 -15.269250 -3.560524 -0.315391 -0.075280 0.000000 0.000000 0.000000 -3.875936 -55.836178 -1.893387 -16.494331 -5.540331 -35.090418 56.805847 4.520331 -7.180342 -34.556328 -13.615095 30.131970 -1.376806 1.420548 0.572708 0.000000 0.000000 0.000000 0.540117 -54.970127 0.552477 9.074587 3.705064 -1.536050 1.585694 -0.349678 -2.140591 0.872199 -0.088848 -0.191504 0.000000 0.000000 0.000000 2.105315 -0.975923 -2.114755 -8.349553 17.479644 3.109093 8.170949 27.350294 -6.667456 0.000000 0.000000 0.000000 3.591742 -1.215395 -1.828976 0.988260 1.963131 3.865809 -4.655930 3.814285 -2.767682 -34.407474 -17.558436 -20.654808 3.148640 -55.850173 2.575719 0.000000 0.000000 0.000000 2.643692 -1.123570 -2.348985 1.175724 12.702724 0.357419 -8.175897 -2.505962 2.981660 -37.052724 35.882255 69.601608 -179.202703 52.364499 176.794515 0.000000 0.000000 0.000000 
